PathFileType	4	(X/Y/Z)	RBDS09\RBDS09runT25.trc
DataRate	CameraRate	NumFrames	NumMarkers	Units	OrigDataRate	OrigDataStartFrame	OrigNumFrames
150.000000	150.000000	6	33	mm	150.000000	3375	4500
Frame#	Time	L.ASIS			L.Heel.Bottom			L.Heel.Lateral			L.Heel.Top			L.Iliac.Crest			L.MT1			L.MT5			L.PSIS			L.Shank.Bottom.Lateral			L.Shank.Bottom.Medial			L.Shank.Top.Lateral			L.Shank.Top.Medial			L.Thigh.Bottom.Lateral			L.Thigh.Bottom.Medial			L.Thigh.Top.Lateral			L.Thigh.Top.Medial			R.ASIS			R.ASY			R.Heel.Bottom			R.Heel.Lateral			R.Heel.Top			R.Iliac.Crest			R.MT1			R.MT5			R.PSIS			R.Shank.Bottom.Lateral			R.Shank.Bottom.Medial			R.Shank.Top.Lateral			R.Shank.Top.Medial			R.Thigh.Bottom.Lateral			R.Thigh.Bottom.Medial			R.Thigh.Top.Lateral			R.Thigh.Top.Medial			
		X1	Y1	Z1	X2	Y2	Z2	X3	Y3	Z3	X4	Y4	Z4	X5	Y5	Z5	X6	Y6	Z6	X7	Y7	Z7	X8	Y8	Z8	X9	Y9	Z9	X10	Y10	Z10	X11	Y11	Z11	X12	Y12	Z12	X13	Y13	Z13	X14	Y14	Z14	X15	Y15	Z15	X16	Y16	Z16	X17	Y17	Z17	X18	Y18	Z18	X19	Y19	Z19	X20	Y20	Z20	X21	Y21	Z21	X22	Y22	Z22	X23	Y23	Z23	X24	Y24	Z24	X25	Y25	Z25	X26	Y26	Z26	X27	Y27	Z27	X28	Y28	Z28	X29	Y29	Z29	X30	Y30	Z30	X31	Y31	Z31	X32	Y32	Z32	X33	Y33	Z33	

3376	22.5	2230.103186754388	987.8010339249826	864.221805737477	1704.054056930654	180.1064647529216	950.1059048251818	1735.080284059156	175.6628549150729	902.5420673409532	1739.314010163407	213.6601150834088	944.9082361178665	2181.242580206273	1047.709844774213	840.0289644918306	1877.707691697319	56.18821223425204	954.243724796732	1831.691896664673	77.32046876159278	855.9868780803853	2078.244716605705	1025.346085364762	969.1848221919311	1826.864314184365	273.3259483464662	876.9016120678973	1800.395182245041	290.3972436145989	920.5275460001185	1858.46659916568	346.1992115917346	865.9667708177337	1833.102608897906	364.136986264144	909.8847255232761	2027.635040788542	657.1920502654173	856.7643365764077	1996.450050285243	668.8827091388044	921.8239363769545	2049.443329994625	765.4715170076878	849.7944564107815	2022.733871849867	775.9586045846618	913.2430441074397	2243.628689710607	994.3894967364791	1097.02552539406	2280.280552052388	172.786261534996	1092.230199947275	2102.246337810549	177.4708276924688	1053.241655754563	2134.7911588688	184.2384866923601	1103.094069063332	2129.210193322928	218.4122507158694	1056.082242652838	2176.854149387462	1065.671628427301	1147.462828771949	2304.843750437133	116.5370579679979	1047.065917035049	2256.179948211744	116.2242302267504	1147.370613906033	2078.233685514683	1021.232426995905	1042.66664377553	2195.081216930355	299.0565725971404	1111.230935683934	2181.164461854609	308.5220835617577	1062.547580774026	2218.517555083749	380.4826892459304	1117.913316225682	2203.090639903447	386.1826931056655	1067.500371732239	2340.822717630437	645.4438591672802	1142.469818037246	2288.563928330328	606.4719955471626	1108.813105237826	2269.92530880594	728.3576036074837	1154.683456503902	2221.008021679726	692.6723994040541	1121.753303270952	
3377	22.50666666666667	2232.474958879236	990.2252418601731	864.5943117562791	1695.040529373178	192.2441821391296	948.7105311548173	1726.216529842972	186.9315539042312	901.3568493095175	1731.566017810442	224.5595120330546	943.89284030103	2186.642262303649	1053.009731428292	841.149152359343	1864.754858493166	61.79350355326499	953.1811818650389	1819.98971715217	85.16042982288548	854.9419597717165	2080.598488675884	1029.215145823769	968.5256399811466	1820.068256254972	281.2404020498891	876.1026031206301	1793.643304763874	298.8260677096861	919.5630688961581	1853.075080849997	353.4757575495823	865.3125131658109	1827.753154426749	371.9215651982154	909.0509405571563	2027.048906436683	661.4868839031752	857.0831942663194	1995.71456144587	673.8554180063834	921.9101667290437	2050.13504029282	769.5158571449972	849.7556673733947	2023.233877418023	780.6317049201076	913.0031767146456	2245.111532276764	997.4631849171241	1096.80870712147	2299.578577199781	167.2109277255927	1091.123697836061	2121.712661799472	161.7403085406849	1051.494913449415	2153.600516111332	170.1022253922046	1101.486979815027	2146.167000186533	204.1560663504679	1054.741783666579	2178.036830931117	1069.460587778003	1147.365390975786	2327.407837165046	112.8506618822092	1045.599010546138	2278.585069528972	108.9303403599593	1145.662122950238	2080.318947064483	1025.122637930091	1042.053779986433	2207.008697732184	288.5746851530022	1110.287334148299	2192.942830969301	297.604507376044	1061.543773777311	2225.86342190401	371.1156417073066	1117.783710671044	2210.511898798953	376.2784244689901	1067.255947147051	2337.089754182636	645.065819347146	1143.120644915995	2284.175835503946	606.6486363922179	1109.884836195476	2267.702463439115	729.3494921981303	1154.612015195327	2218.280344280551	694.2239423780895	1121.872774545572	
3378	22.51333333333334	2234.633771100363	992.4050542138627	864.9432521174854	1686.163435631847	204.6230081210134	947.7566425563992	1717.385499661527	198.586696638796	900.5588532978682	1723.818435968882	235.752933890835	943.3143378267597	2191.305727641793	1057.964164546514	842.3518450999829	1851.993404222178	68.29354389261063	952.1807449914635	1808.324619493477	93.85028197699268	854.0445266483582	2082.69047344251	1032.534351867316	967.8574089780461	1813.518396964562	289.3530612898942	875.5749520138774	1787.24760640958	307.5990724789878	918.8811566741764	1848.18179125652	360.767739418162	864.8383326791908	1823.067484367275	379.8512757573542	908.4331937415689	2027.509401303989	664.8084014731168	857.2280522939224	1995.708264614274	677.7846926406387	921.6613754349613	2051.427250880366	772.6362725747334	849.4817112989109	2024.075468842919	784.3283706303548	912.4075309766129	2246.435958578569	1000.032745099891	1096.569454383754	2318.203552031663	162.2572283676058	1090.035526138609	2141.057013603354	147.0004569638851	1049.839919754678	2172.269714165137	156.8211243879772	1099.95565491566	2162.997746919841	190.6972952141763	1053.507544578095	2179.173179983727	1072.425264995265	1147.298647717639	2349.072145096022	110.0036542824569	1044.166369567972	2300.370690777322	102.4486773444446	1143.997297792709	2082.18133178264	1028.434669353868	1041.419620235662	2218.725193435783	278.5292944827995	1109.408901493967	2204.476145070341	287.1879416973589	1060.630931181963	2233.01782669764	361.8814946591027	1117.759312181851	2217.700893440034	366.5936642940492	1067.135491639558	2332.66241948221	643.7845267508048	1143.828790763654	2279.245633928881	606.1698474801019	1110.619405669349	2264.910617306504	729.5176640098056	1154.600713735959	2215.076520833434	695.1366123885516	1121.780881861625	
3379	22.52	2236.622395841901	994.3251656380907	865.3035061341708	1677.470710343676	217.3023564957163	947.2618537442503	1708.6257648014	210.6458802206109	900.1531955213203	1716.136526776116	247.2848698436873	943.1532954438976	2195.160974437497	1062.481474371179	843.5840727364077	1839.416484042282	75.65907153870654	951.265742652629	1796.684069616251	103.3298971310926	853.3073156668512	2084.523846484246	1035.263876872775	967.1872852524504	1807.228390864596	297.7195792374653	875.3179547153277	1781.256362123551	316.7404316966834	918.5082555622691	1843.789693255732	368.1224975284507	864.5721076804285	1819.064584256742	387.946876145571	908.0743857849303	2028.999889402493	667.1195789301415	857.1938241166845	1996.461058948085	680.6229888428047	921.1054111310361	2053.324932767462	774.8060808966777	848.9870453718038	2025.296235388813	787.0128190490658	911.4903303002286	2247.581316421651	1002.091791945997	1096.376449467076	2335.968253297175	157.9057544210823	1089.012073056299	2160.020556121823	133.3521731009311	1048.265409587822	2190.542454268991	144.4770534517054	1098.50372164715	2179.48151118041	178.1351193851845	1052.375777512937	2180.273989169625	1074.60038206215	1147.270486704172	2369.642285851295	107.9258988125457	1042.842052469042	2321.281242393946	96.74649491127941	1142.423725731934	2083.807144813378	1031.131371330685	1040.774248996599	2230.060366309684	269.0154349750396	1108.591159800183	2215.600395218361	277.3466959881333	1059.799175103364	2239.841468146858	352.8946059697191	1117.790065802192	2224.525973205975	357.2191886857269	1067.085946510695	2327.635298108857	641.7022182067255	1144.574249201352	2273.892131534073	605.1318523759608	1110.967660744206	2261.604598709955	728.9141248017864	1154.67413773475	2211.474594002487	695.4649214758093	1121.478744725559	
3380	22.52666666666667	2238.486897592311	995.9647947687371	865.7075831905395	1669.057669192868	230.3507345816423	947.2081934877511	1700.031990039047	223.133711251682	900.117881526754	1708.641859569738	259.1985173429933	943.3665066380433	2198.177532266237	1066.476829240445	844.7874277902689	1827.041794187809	83.83469269379418	950.4518359709092	1785.102346892806	113.53080452866	852.7315991665155	2086.115434700515	1037.375751396957	966.5162916381495	1801.256153209536	306.3772202217266	875.3150099304968	1775.747505586071	326.252358840229	918.4452205859832	1839.935009704574	375.5738083612846	864.5295543142295	1815.781294264959	396.2114353760398	907.9970615868795	2031.463428422697	668.4118659066004	856.9931788011022	1997.988800369132	682.3450210042911	920.3021231237447	2055.803285210133	776.0235931117121	848.3115441947747	2026.926392419025	788.6673462943016	910.3230468121836	2248.535053214487	1003.640182509643	1096.298352046661	2352.679225767321	154.099415814944	1088.107225202138	2178.32352207908	120.863304352014	1046.751630961473	2208.138420142738	133.119352376681	1097.128359966086	2195.378556103638	166.540879219208	1051.334852304159	2181.320820773734	1076.040390807489	1147.284490392746	2388.92092746803	106.4959345738938	1041.700286526985	2341.044562621616	91.74547917434941	1140.986954746536	2085.19701615994	1033.187037758456	1040.122557199982	2240.827367929426	260.1024895686473	1107.824959136787	2226.149588094454	268.1269333319256	1059.030198882567	2246.186066016995	344.2516854636521	1117.817213422114	2230.858682216015	348.2256094136139	1067.042493619522	2322.135363159196	638.9470393867487	1145.33339826752	2268.244747593989	603.6353853842485	1110.922516412468	2257.869602749808	727.6199068682427	1154.844470830592	2207.570429172407	695.2762640957658	1120.986783005454	
3381	22.53333333333333	2240.268652289017	997.2963632262744	866.1803509896475	1661.061672630332	243.8334294079797	947.5487645035366	1691.748431286683	236.074723758067	900.4094845443844	1701.502190653267	271.526530562833	943.8950844074392	2200.366136369537	1069.872989282514	845.9031775414594	1814.91446652493	92.74473540946038	949.7440077371632	1773.660712812978	124.3827993751529	852.3075255041083	2087.49233552391	1038.852541871098	965.8398873381518	1795.699502831756	315.3382345633558	875.5364302877219	1770.823580526888	336.1124976048706	918.6688215735741	1836.685767110376	383.1340857484113	864.7132306940915	1813.272001542258	404.6259614389028	908.2020050393131	2034.808122233765	668.6999978999864	856.6576679649431	2000.289827794086	682.9448362637037	919.3392563498057	2058.808097419878	776.3068928278946	847.5173876871961	2028.982721821731	789.2889745391377	909.0078291788416	2249.294131722273	1004.682105183675	1096.394430180226	2368.140965694137	150.7411610659022	1087.373771227938	2195.670575552436	109.5640046916592	1045.274053557459	2224.761503082635	122.7610053598996	1095.821205670715	2210.435894796213	155.9534351906308	1050.367189874031	2182.271692604749	1076.809942470655	1147.340698238151	2406.709781684102	105.5414299202667	1040.803719602985	2359.380909091377	87.32318901703027	1139.724338125765	2086.364593354952	1034.586957327379	1039.464697250365	2250.831014632898	251.8274808165912	1107.097343272662	2235.960672535584	259.5441638323869	1058.299577415254	2251.903747758955	336.024318951955	1117.780309405269	2236.579750492966	339.6604374426941	1066.936418967569	2316.313790878506	635.6613298408438	1146.079868837877	2262.434786300054	601.776322982798	1110.520156096627	2253.817587926747	725.737713645092	1155.108611057685	2203.471331431865	694.6433002844295	1120.343820723391	
